<?xml version="1.0" encoding="UTF-8"?>
<svg width="117px" height="30px" viewBox="0 0 117 30" version="1.1" xmlns="http://www.w3.org/2000/svg" xmlns:xlink="http://www.w3.org/1999/xlink">
    <title>logo</title>
    <g id="Page-1" stroke="none" stroke-width="1" fill="none" fill-rule="evenodd">
        <g id="logo" fill="#38f">
            <path d="M15.2608767,22.8000077 C19.3923844,22.8000077 22.7416922,19.3077731 22.7416922,15.0000297 C22.7416922,10.6921873 19.3923844,7.20001873 15.2608767,7.20001873 C11.1293325,7.20001873 7.78004297,10.6921873 7.78004297,15.0000297 C7.78004297,19.3077731 11.1293325,22.8000077 15.2608767,22.8000077 Z M15.2608767,30 C6.83252578,30 0,23.2843165 0,15.0000297 C0,6.71574286 6.83252578,0 15.2608767,0 C23.6892094,0 30.5218266,6.71574286 30.5218266,15.0000297 C30.5218266,23.2843165 23.6892094,30 15.2608767,30 Z M52.6748625,9.00007453 C53.2743047,10.5002447 56.5413469,18.60959 57.1672969,20.109183 C57.6016594,21.1496968 58.3594172,21.3035477 58.6489922,21.299755 C59.4994359,21.3017338 60.1486031,20.8616179 60.1502484,19.800162 L60.1454953,1.20017901 L67.6261828,1.20017901 L67.6261828,19.5000455 C67.6782844,25.8529508 63.0183938,29.0806871 59.2478859,29.0999965 C55.5411797,29.1189437 52.0002844,27.6297394 49.3857,21.0001332 C48.8573719,19.7046854 46.0842891,12.5646009 45.1755281,10.5166852 C44.4358688,8.84991735 43.8537938,8.7082195 43.2558141,8.70027136 C42.6576516,8.69230673 41.8923984,9.14958861 41.8927641,10.1985947 L41.8927641,28.7998639 L34.4347453,28.8000288 L34.4122594,10.5000633 C34.3594266,4.17227214 38.9315672,0.919456321 42.7905563,0.900002525 C46.4603344,0.881262376 50.0257266,2.37045192 52.6748625,9.00007453 Z M81.0921516,28.8000288 L73.3120172,28.8000288 L73.3120172,1.19999763 L81.0921516,1.19999763 L81.0921516,28.8000288 Z M91.7005781,15.0000297 C88.3254938,12.1658912 86.1790922,7.90925005 86.1790922,3.15001273 C86.1790922,3.09999881 86.1790922,3.05005085 86.1798234,3.00015237 L86.1790922,3.00000396 L86.1790922,1.19999763 L93.6597797,1.19999763 L93.6597797,3.00000396 L93.6610594,3.00000396 C93.6603281,3.04990245 93.6597797,3.09989987 93.6597797,3.15001273 C93.6597797,7.70635812 97.2099984,11.400017 101.589455,11.400017 C105.968911,11.400017 109.51913,7.70635812 109.51913,3.15001273 C109.51913,3.09989987 109.518764,3.04990245 109.51785,3.00000396 L109.51913,3.00000396 L109.51913,1.19999763 L117,1.19999763 L117,3.00000396 L116.999269,3.00018535 C117,3.05006734 117,3.1000153 117,3.15001273 C117,7.90925005 114.853598,12.1658912 111.478331,15.0000297 C114.81795,17.8042225 116.954663,22.0012361 116.999269,26.6997081 L117,26.7000379 L117,28.8000288 L109.51913,28.8000288 L109.51913,26.7000379 L109.51785,26.7000379 C109.441069,22.2129666 105.920831,18.6000259 101.589455,18.6000259 C97.2582609,18.6000259 93.7380234,22.2129666 93.6610594,26.7000379 L93.6597797,26.7000379 L93.6597797,28.8000288 L86.1790922,28.8000288 L86.1790922,26.7000379 L86.1798234,26.7000379 C86.2242469,22.001401 88.3609594,17.8043874 91.7005781,15.0000297 Z" id="Shape"></path>
        </g>
    </g>
</svg>
